<svg width="23" height="25" viewBox="0 0 23 25" version="1.1" xmlns="http://www.w3.org/2000/svg" xmlns:xlink="http://www.w3.org/1999/xlink">
<title>Download icon</title>
<desc>Created using Figma</desc>
<g id="Canvas" transform="translate(267 -851)">
<g id="Download icon">
<g id="Vector">
<use xlink:href="#path0_fill" transform="translate(-267 859.099)" fill="#F2F2F2"/>
</g>
<g id="Vector">
<use xlink:href="#path1_fill" transform="translate(-261.645 851)" fill="#F2F2F2"/>
</g>
</g>
</g>
<defs>
<path id="path0_fill" d="M -1.32535e-07 14.507C -1.32535e-07 15.8451 1.07704 16.9014 2.39728 16.9014L 20.6027 16.9014C 21.923 16.9014 23 15.8099 23 14.507L 23 2.39437C 23 1.05634 21.923 0 20.6027 0L 15.7387 0C 15.2523 0 14.8701 0.387324 14.8701 0.880282C 14.8701 1.37324 15.2523 1.76056 15.7387 1.76056L 20.6027 1.76056C 20.9502 1.76056 21.2628 2.04225 21.2628 2.39437L 21.2628 14.4718C 21.2628 14.8239 20.9849 15.1056 20.6027 15.1056L 2.39728 15.1056C 2.04985 15.1056 1.73716 14.8239 1.73716 14.4718L 1.73716 2.39437C 1.73716 2.04225 2.01511 1.76056 2.39728 1.76056L 6.56647 1.76056C 7.05287 1.76056 7.43505 1.37324 7.43505 0.880282C 7.43505 0.387324 7.05287 0 6.56647 0L 2.39728 0C 1.07704 0 -1.32535e-07 1.09155 -1.32535e-07 2.39437L -1.32535e-07 14.507Z"/>
<path id="path1_fill" d="M 5.97118 0C 5.48477 0 5.1026 0.387324 5.1026 0.880282L 5.1026 16.338L 1.38507 13.4859C 1.0029 13.2042 0.447006 13.2746 0.16906 13.662C -0.108885 14.0493 -0.0393991 14.6127 0.342776 14.8944L 5.45003 18.8028C 5.45003 18.8028 5.45003 18.8028 5.48477 18.8028C 5.48477 18.8028 5.51951 18.838 5.55426 18.838C 5.589 18.838 5.62374 18.8732 5.62374 18.8732C 5.65849 18.8732 5.65849 18.8732 5.69323 18.9085C 5.72797 18.9085 5.76272 18.9437 5.79746 18.9437C 5.8322 18.9437 5.8322 18.9437 5.86695 18.9437C 5.93643 18.9437 5.97118 18.9437 6.04066 18.9437C 6.11015 18.9437 6.14489 18.9437 6.21438 18.9437C 6.24912 18.9437 6.24912 18.9437 6.28386 18.9437C 6.31861 18.9437 6.35335 18.9085 6.38809 18.9085C 6.42284 18.9085 6.42284 18.9085 6.45758 18.8732C 6.49232 18.8732 6.52707 18.838 6.52707 18.838C 6.56181 18.838 6.56181 18.8028 6.59655 18.8028C 6.59655 18.8028 6.59655 18.8028 6.6313 18.8028L 11.7385 14.8592C 12.1207 14.5775 12.1902 14.0141 11.9123 13.6268C 11.6343 13.2394 11.0784 13.169 10.6963 13.4507L 6.83976 16.338L 6.83976 0.880282C 6.83976 0.387324 6.45758 0 5.97118 0Z"/>
</defs>
</svg>
