<svg width="223" height="91" viewBox="0 0 223 91" version="1.1" xmlns="http://www.w3.org/2000/svg" xmlns:xlink="http://www.w3.org/1999/xlink">
<title>H&#195;&#169;l&#195;&#168;na &#38; Cyril</title>
<desc>Created using Figma</desc>
<g id="Canvas" transform="translate(524 -506)">
<g id="H&#195;&#169;l&#195;&#168;na &#38; Cyril">
<g id="&#38;">
<use xlink:href="#path0_fill" transform="translate(-462 473)" fill="#F9D7D9"/>
</g>
<g id="H&#195;&#169;l&#195;&#168;na">
<use xlink:href="#path1_fill" transform="translate(-581 507)" fill="#41617C"/>
</g>
<g id="Cyril">
<use xlink:href="#path2_fill" transform="translate(-485 522)" fill="#41617C"/>
</g>
</g>
</g>
<defs>
<path id="path0_fill" d="M 47.2151 77.088L 48.5111 77.088L 48.5111 76.728C 48.5111 72.984 50.8871 71.904 54.1271 71.544C 59.0951 71.544 62.2631 76.08 62.2631 80.688C 62.2631 87.384 56.7191 91.848 48.5111 91.848C 40.7351 91.848 35.6231 86.952 35.6231 79.536C 35.6231 70.824 39.5111 65.856 46.0631 65.856L 47.5751 65.856L 47.5751 64.56L 46.4231 64.56C 41.8151 64.56 39.0071 59.808 39.0071 55.2C 39.0071 50.232 42.1751 46.92 46.9991 46.92C 50.8151 46.92 54.6311 48.864 55.0631 54.336L 55.0631 55.488L 55.7111 55.488L 55.7111 45.84L 55.0631 45.84L 55.0631 47.352C 55.0631 47.784 55.0631 48.288 55.1351 48.576L 54.9911 48.648C 54.4871 47.784 53.6231 46.992 52.5431 46.56C 50.5991 45.768 48.0791 45.624 46.9991 45.624C 40.0151 45.624 35.3351 49.584 35.3351 55.416C 35.3351 59.88 38.0711 64.2 41.9591 64.92L 41.9591 64.992C 34.8311 65.928 29.9351 71.976 29.9351 79.536C 29.9351 87.96 36.7751 93.576 47.0711 93.576C 57.0071 93.576 63.6311 88.536 63.6311 80.832C 63.6311 77.016 61.6871 73.272 58.5911 71.472C 59.0951 71.472 59.5271 71.472 60.0311 71.472C 65.5751 71.472 70.1831 70.68 70.1831 63.696C 70.1831 63.336 70.1111 62.76 70.1111 62.4L 69.9671 60.456L 68.9591 60.456C 68.9591 60.816 68.9591 61.104 68.9591 61.392C 68.9591 66.576 63.4151 67.08 58.0151 67.512C 52.5431 67.872 47.2151 69.024 47.2151 76.44L 47.2151 77.088Z"/>
<path id="path1_fill" d="M 97.2326 14.24C 97.5206 14.096 97.8566 13.988 98.2406 13.916C 98.6246 13.82 98.9726 13.784 99.2846 13.808C 99.5966 13.832 99.8246 13.928 99.9686 14.096C 100.137 14.264 100.137 14.528 99.9686 14.888L 99.9686 14.924C 99.8726 15.188 99.5726 15.848 99.0686 16.904C 98.5886 17.936 98.0006 19.22 97.3046 20.756C 96.6086 22.292 95.8646 24.008 95.0726 25.904C 94.2806 27.8 93.5606 29.732 92.9126 31.7C 93.8246 31.628 94.6166 31.46 95.2886 31.196C 95.9846 30.908 96.5006 30.476 96.8366 29.9C 96.8846 29.804 96.9566 29.744 97.0526 29.72C 97.1726 29.696 97.2806 29.708 97.3766 29.756C 97.5926 29.876 97.6406 30.056 97.5206 30.296C 97.1126 31.04 96.4766 31.58 95.6126 31.916C 94.7726 32.252 93.7886 32.444 92.6606 32.492C 92.1566 34.004 91.7366 35.492 91.4006 36.956C 91.0646 38.42 90.8486 39.788 90.7526 41.06C 90.6566 42.332 90.7046 43.484 90.8966 44.516C 91.1126 45.524 91.5206 46.34 92.1206 46.964C 92.8646 47.756 93.7646 48.248 94.8206 48.44C 95.8766 48.656 96.8246 48.524 97.6646 48.044C 97.7846 47.972 97.8926 47.948 97.9886 47.972C 98.1086 48.02 98.1926 48.08 98.2406 48.152C 98.2886 48.248 98.3006 48.344 98.2766 48.44C 98.2526 48.56 98.1806 48.656 98.0606 48.728C 97.3886 49.136 96.6326 49.388 95.7926 49.484C 94.9526 49.58 94.1126 49.556 93.2726 49.412C 92.4566 49.268 91.6886 49.028 90.9686 48.692C 90.2486 48.38 89.6606 47.984 89.2046 47.504C 88.5806 46.856 88.1486 46.004 87.9086 44.948C 87.6926 43.892 87.6206 42.704 87.6926 41.384C 87.7646 40.04 87.9686 38.612 88.3046 37.1C 88.6406 35.564 89.0606 34.004 89.5646 32.42C 88.5566 32.324 87.5006 32.192 86.3966 32.024C 85.3166 31.856 84.2246 31.676 83.1206 31.484C 82.2086 31.34 81.2966 31.208 80.3846 31.088C 79.4966 30.944 78.6326 30.824 77.7926 30.728C 76.6406 33.512 75.6926 35.816 74.9486 37.64C 74.2046 39.44 73.6046 40.904 73.1486 42.032C 72.6926 43.136 72.3446 43.952 72.1046 44.48C 71.8886 45.008 71.7326 45.392 71.6366 45.632C 71.5406 45.848 71.4806 45.992 71.4566 46.064C 71.4326 46.112 71.3846 46.22 71.3126 46.388C 70.4006 48.356 69.2726 49.796 67.9286 50.708C 66.6086 51.644 65.2766 52.184 63.9326 52.328C 62.5886 52.472 61.3286 52.304 60.1526 51.824C 58.9766 51.368 58.0766 50.732 57.4526 49.916C 57.3086 49.7 57.3446 49.508 57.5606 49.34C 57.7526 49.196 57.9206 49.22 58.0646 49.412C 58.6406 50.18 59.3726 50.72 60.2606 51.032C 61.1246 51.344 62.0486 51.344 63.0326 51.032C 63.9926 50.72 64.9406 50.048 65.8766 49.016C 66.8366 48.008 67.6886 46.544 68.4326 44.624L 74.3366 30.584C 73.5686 30.632 72.8966 30.752 72.3206 30.944C 71.7446 31.136 71.3246 31.448 71.0606 31.88C 71.0126 31.976 70.9286 32.036 70.8086 32.06C 70.7126 32.06 70.6166 32.036 70.5206 31.988C 70.4246 31.94 70.3646 31.868 70.3406 31.772C 70.3166 31.652 70.3406 31.544 70.4126 31.448C 70.7966 30.872 71.3486 30.464 72.0686 30.224C 72.7886 29.96 73.6526 29.816 74.6606 29.792L 80.7446 15.392C 80.8166 15.2 81.0566 15.032 81.4646 14.888C 81.8726 14.72 82.2926 14.636 82.7246 14.636C 83.1566 14.612 83.5166 14.672 83.8046 14.816C 84.0926 14.96 84.1646 15.248 84.0206 15.68C 82.7966 18.608 81.6926 21.248 80.7086 23.6C 79.7486 25.952 78.8846 28.076 78.1166 29.972C 78.9326 30.068 79.7606 30.188 80.6006 30.332C 81.4646 30.452 82.3526 30.584 83.2646 30.728C 84.3926 30.92 85.5086 31.1 86.6126 31.268C 87.7166 31.436 88.7846 31.568 89.8166 31.664C 90.3446 30.008 90.9206 28.364 91.5446 26.732C 92.1926 25.076 92.8406 23.504 93.4886 22.016C 94.1366 20.528 94.7486 19.16 95.3246 17.912C 95.9006 16.64 96.4046 15.548 96.8366 14.636C 96.9326 14.468 97.0646 14.336 97.2326 14.24ZM 113.08 33.212C 113.296 33.044 113.476 32.96 113.62 32.96C 113.788 32.936 113.908 32.96 113.98 33.032C 114.076 33.104 114.112 33.2 114.088 33.32C 114.088 33.416 114.04 33.5 113.944 33.572C 112.504 34.628 111.076 35.72 109.66 36.848C 108.244 37.952 106.9 38.9 105.628 39.692C 104.38 40.484 103.24 41 102.208 41.24C 101.176 41.48 100.324 41.252 99.6525 40.556C 99.0525 39.908 98.8245 38.936 98.9685 37.64C 99.1845 36.056 99.7605 34.604 100.696 33.284C 101.632 31.964 102.796 30.932 104.188 30.188C 105.076 29.732 105.856 29.54 106.528 29.612C 107.2 29.66 107.716 29.864 108.076 30.224C 108.46 30.584 108.664 31.04 108.688 31.592C 108.712 32.12 108.52 32.624 108.112 33.104C 107.824 33.464 107.416 33.788 106.888 34.076C 106.384 34.364 105.832 34.628 105.232 34.868C 104.632 35.084 104.02 35.264 103.396 35.408C 102.772 35.552 102.208 35.66 101.704 35.732C 101.272 36.644 100.984 37.592 100.84 38.576C 100.72 39.44 100.84 39.98 101.2 40.196C 101.56 40.412 102.076 40.412 102.748 40.196C 103.42 39.956 104.2 39.56 105.088 39.008C 105.976 38.432 106.888 37.808 107.824 37.136C 108.784 36.44 109.72 35.744 110.632 35.048C 111.544 34.352 112.36 33.74 113.08 33.212ZM 107.5 32.636C 107.74 32.348 107.86 32.084 107.86 31.844C 107.86 31.604 107.776 31.424 107.608 31.304C 107.44 31.16 107.2 31.088 106.888 31.088C 106.576 31.088 106.228 31.196 105.844 31.412C 105.076 31.82 104.38 32.324 103.756 32.924C 103.156 33.5 102.628 34.16 102.172 34.904C 102.7 34.808 103.24 34.688 103.792 34.544C 104.344 34.376 104.86 34.196 105.34 34.004C 105.82 33.788 106.252 33.572 106.636 33.356C 107.02 33.116 107.308 32.876 107.5 32.636ZM 106.852 28.352C 106.564 28.256 106.408 28.148 106.384 28.028C 106.384 27.884 106.384 27.788 106.384 27.74L 106.672 26.876L 107.428 25.796L 108.148 24.752C 108.244 24.608 108.364 24.524 108.508 24.5C 108.676 24.452 108.844 24.44 109.012 24.464C 109.204 24.464 109.384 24.488 109.552 24.536C 109.72 24.56 109.84 24.584 109.912 24.608C 110.296 24.728 110.524 24.848 110.596 24.968C 110.692 25.064 110.74 25.136 110.74 25.184L 110.668 25.508L 108.112 28.244C 107.968 28.388 107.764 28.46 107.5 28.46C 107.26 28.436 107.044 28.4 106.852 28.352ZM 143.801 1.496C 144.185 2.072 144.425 2.78 144.521 3.62C 144.641 4.436 144.509 5.36 144.125 6.392C 143.765 7.4 143.129 8.492 142.217 9.668C 141.305 10.844 140.033 12.056 138.401 13.304C 135.521 15.512 132.569 17.612 129.545 19.604C 126.545 21.572 123.449 23.432 120.257 25.184C 119.249 26.96 118.349 28.556 117.557 29.972C 116.789 31.388 116.117 32.708 115.541 33.932C 114.965 35.132 114.497 36.272 114.137 37.352C 113.801 38.432 113.561 39.524 113.417 40.628C 113.081 43.052 113.393 44.612 114.353 45.308C 115.313 46.004 116.825 45.644 118.889 44.228L 134.873 33.176C 135.017 33.08 135.161 33.032 135.305 33.032C 135.449 33.032 135.557 33.068 135.629 33.14C 135.701 33.212 135.713 33.308 135.665 33.428C 135.617 33.548 135.485 33.68 135.269 33.824L 119.321 44.876C 117.593 46.052 116.141 46.688 114.965 46.784C 113.789 46.856 112.841 46.604 112.121 46.028C 111.425 45.452 110.945 44.648 110.681 43.616C 110.441 42.56 110.381 41.48 110.501 40.376C 110.717 38.408 111.221 36.536 112.013 34.76C 112.805 32.984 113.633 31.28 114.497 29.648C 115.121 28.448 115.889 27.008 116.801 25.328C 117.713 23.648 118.709 21.872 119.789 20C 120.893 18.128 122.057 16.232 123.281 14.312C 124.505 12.368 125.753 10.544 127.025 8.84C 128.297 7.112 129.557 5.576 130.805 4.232C 132.077 2.864 133.301 1.832 134.477 1.136C 135.533 0.488 136.541 0.056 137.501 -0.16C 138.485 -0.4 139.373 -0.484 140.165 -0.412C 140.981 -0.34 141.701 -0.136 142.325 0.2C 142.949 0.536 143.441 0.968 143.801 1.496ZM 137.933 12.656C 139.301 11.6 140.405 10.568 141.245 9.56C 142.109 8.552 142.745 7.592 143.153 6.68C 143.561 5.768 143.765 4.928 143.765 4.16C 143.765 3.392 143.609 2.732 143.297 2.18C 143.033 1.772 142.673 1.484 142.217 1.316C 141.785 1.148 141.305 1.076 140.777 1.1C 140.273 1.124 139.757 1.232 139.229 1.424C 138.725 1.592 138.257 1.796 137.825 2.036C 136.457 2.828 135.017 4.052 133.505 5.708C 132.017 7.34 130.529 9.188 129.041 11.252C 127.577 13.292 126.149 15.428 124.757 17.66C 123.389 19.868 122.141 21.944 121.013 23.888C 123.965 22.208 126.845 20.444 129.653 18.596C 132.485 16.724 135.245 14.744 137.933 12.656ZM 146.514 33.212C 146.73 33.044 146.91 32.96 147.054 32.96C 147.222 32.936 147.342 32.96 147.414 33.032C 147.51 33.104 147.546 33.2 147.522 33.32C 147.522 33.416 147.474 33.5 147.378 33.572C 145.938 34.628 144.51 35.72 143.094 36.848C 141.678 37.952 140.334 38.9 139.062 39.692C 137.814 40.484 136.674 41 135.642 41.24C 134.61 41.48 133.758 41.252 133.086 40.556C 132.486 39.908 132.258 38.936 132.402 37.64C 132.618 36.056 133.194 34.604 134.13 33.284C 135.066 31.964 136.23 30.932 137.622 30.188C 138.51 29.732 139.29 29.54 139.962 29.612C 140.634 29.66 141.15 29.864 141.51 30.224C 141.894 30.584 142.098 31.04 142.122 31.592C 142.146 32.12 141.954 32.624 141.546 33.104C 141.258 33.464 140.85 33.788 140.322 34.076C 139.818 34.364 139.266 34.628 138.666 34.868C 138.066 35.084 137.454 35.264 136.83 35.408C 136.206 35.552 135.642 35.66 135.138 35.732C 134.706 36.644 134.418 37.592 134.274 38.576C 134.154 39.44 134.274 39.98 134.634 40.196C 134.994 40.412 135.51 40.412 136.182 40.196C 136.854 39.956 137.634 39.56 138.522 39.008C 139.41 38.432 140.322 37.808 141.258 37.136C 142.218 36.44 143.154 35.744 144.066 35.048C 144.978 34.352 145.794 33.74 146.514 33.212ZM 140.934 32.636C 141.174 32.348 141.294 32.084 141.294 31.844C 141.294 31.604 141.21 31.424 141.042 31.304C 140.874 31.16 140.634 31.088 140.322 31.088C 140.01 31.088 139.662 31.196 139.278 31.412C 138.51 31.82 137.814 32.324 137.19 32.924C 136.59 33.5 136.062 34.16 135.606 34.904C 136.134 34.808 136.674 34.688 137.226 34.544C 137.778 34.376 138.294 34.196 138.774 34.004C 139.254 33.788 139.686 33.572 140.07 33.356C 140.454 33.116 140.742 32.876 140.934 32.636ZM 140.43 28.388C 140.238 28.388 140.022 28.352 139.782 28.28C 139.542 28.184 139.374 28.04 139.278 27.848L 137.694 24.464L 137.73 24.14C 137.754 24.092 137.814 24.032 137.91 23.96C 138.03 23.888 138.294 23.852 138.702 23.852C 138.774 23.852 138.894 23.864 139.062 23.888C 139.23 23.888 139.398 23.912 139.566 23.96C 139.734 24.008 139.89 24.08 140.034 24.176C 140.178 24.248 140.274 24.368 140.322 24.536L 140.682 25.76L 141.078 27.02L 141.078 27.956C 141.078 28.004 141.042 28.088 140.97 28.208C 140.922 28.328 140.742 28.388 140.43 28.388ZM 163.412 32.888C 163.58 32.792 163.724 32.744 163.844 32.744C 163.988 32.744 164.084 32.78 164.132 32.852C 164.204 32.924 164.216 33.032 164.168 33.176C 164.144 33.296 164.036 33.416 163.844 33.536L 155.06 39.404C 153.62 40.292 152.492 40.868 151.676 41.132C 150.884 41.396 150.32 41.456 149.984 41.312C 149.672 41.144 149.552 40.808 149.624 40.304C 149.72 39.776 149.924 39.176 150.236 38.504C 150.5 37.952 150.836 37.352 151.244 36.704C 151.676 36.056 152.072 35.432 152.432 34.832C 152.816 34.232 153.116 33.704 153.332 33.248C 153.572 32.768 153.644 32.432 153.548 32.24C 153.428 32.048 153.224 32 152.936 32.096C 152.672 32.192 152.252 32.444 151.676 32.852C 151.1 33.26 150.356 33.836 149.444 34.58C 148.556 35.324 147.44 36.248 146.096 37.352C 145.904 37.712 145.724 38.072 145.556 38.432C 145.388 38.792 145.22 39.152 145.052 39.512C 144.836 40.016 144.536 40.448 144.152 40.808C 143.768 41.168 143.408 41.396 143.072 41.492C 142.76 41.564 142.52 41.48 142.352 41.24C 142.184 41 142.208 40.544 142.424 39.872C 142.496 39.68 142.688 39.236 143 38.54C 143.312 37.844 143.732 36.992 144.26 35.984C 144.812 34.976 145.46 33.86 146.204 32.636C 146.948 31.412 147.776 30.176 148.688 28.928C 148.76 28.832 148.88 28.76 149.048 28.712C 149.24 28.64 149.444 28.604 149.66 28.604C 149.876 28.604 150.08 28.616 150.272 28.64C 150.488 28.664 150.656 28.7 150.776 28.748C 150.968 28.82 151.088 28.928 151.136 29.072C 151.208 29.216 151.16 29.42 150.992 29.684C 150.32 30.548 149.696 31.412 149.12 32.276C 148.544 33.14 147.992 34.004 147.464 34.868C 147.728 34.652 148.184 34.292 148.832 33.788C 149.504 33.26 150.212 32.72 150.956 32.168C 151.724 31.616 152.444 31.112 153.116 30.656C 153.812 30.2 154.316 29.912 154.628 29.792C 155.132 29.6 155.528 29.552 155.816 29.648C 156.104 29.744 156.308 29.912 156.428 30.152C 156.572 30.368 156.644 30.632 156.644 30.944C 156.644 31.256 156.596 31.544 156.5 31.808C 156.428 32 156.32 32.24 156.176 32.528C 156.032 32.816 155.816 33.212 155.528 33.716C 155.264 34.22 154.904 34.844 154.448 35.588C 154.016 36.332 153.476 37.244 152.828 38.324C 152.54 38.78 152.384 39.116 152.36 39.332C 152.36 39.524 152.444 39.62 152.612 39.62C 152.78 39.62 153.032 39.548 153.368 39.404C 153.728 39.236 154.124 39.02 154.556 38.756C 154.58 38.756 154.748 38.648 155.06 38.432C 155.372 38.216 155.78 37.952 156.284 37.64C 156.788 37.304 157.352 36.932 157.976 36.524C 158.624 36.092 159.272 35.66 159.92 35.228C 160.568 34.796 161.192 34.376 161.792 33.968C 162.416 33.56 162.956 33.2 163.412 32.888ZM 179.42 33.176C 179.612 33.032 179.792 32.948 179.96 32.924C 180.152 32.9 180.296 32.924 180.392 32.996C 180.488 33.044 180.536 33.116 180.536 33.212C 180.536 33.308 180.452 33.404 180.284 33.5C 178.7 34.604 177.212 35.696 175.82 36.776C 174.428 37.856 173.12 38.744 171.896 39.44C 171.032 39.92 170.3 40.208 169.7 40.304C 169.1 40.4 168.596 40.364 168.188 40.196C 167.804 40.028 167.516 39.764 167.324 39.404C 167.156 39.02 167.072 38.612 167.072 38.18C 166.496 38.756 165.872 39.284 165.2 39.764C 164.528 40.22 163.82 40.616 163.076 40.952C 162.452 41.216 161.9 41.348 161.42 41.348C 160.964 41.348 160.568 41.252 160.232 41.06C 159.92 40.844 159.68 40.556 159.512 40.196C 159.344 39.836 159.26 39.44 159.26 39.008C 159.26 38.504 159.392 37.916 159.656 37.244C 159.944 36.548 160.328 35.84 160.808 35.12C 161.288 34.4 161.828 33.692 162.428 32.996C 163.052 32.3 163.7 31.688 164.372 31.16C 165.044 30.632 165.716 30.224 166.388 29.936C 167.084 29.648 167.732 29.528 168.332 29.576C 168.908 29.624 169.376 29.804 169.736 30.116C 170.096 30.404 170.336 30.752 170.456 31.16C 170.6 31.544 170.624 31.952 170.528 32.384C 170.456 32.816 170.276 33.2 169.988 33.536C 169.652 33.92 169.256 34.172 168.8 34.292C 168.368 34.388 167.912 34.34 167.432 34.148C 167.312 34.1 167.228 34.028 167.18 33.932C 167.132 33.812 167.12 33.704 167.144 33.608C 167.168 33.512 167.228 33.44 167.324 33.392C 167.42 33.344 167.564 33.356 167.756 33.428C 168.044 33.548 168.332 33.584 168.62 33.536C 168.932 33.464 169.184 33.296 169.376 33.032C 169.688 32.696 169.772 32.336 169.628 31.952C 169.484 31.544 169.22 31.304 168.836 31.232C 168.38 31.16 167.888 31.232 167.36 31.448C 166.856 31.664 166.352 31.976 165.848 32.384C 165.344 32.792 164.864 33.272 164.408 33.824C 163.952 34.376 163.544 34.94 163.184 35.516C 162.824 36.092 162.536 36.656 162.32 37.208C 162.104 37.736 161.996 38.192 161.996 38.576C 161.996 38.864 162.128 39.116 162.392 39.332C 162.68 39.524 163.064 39.584 163.544 39.512C 164.048 39.44 164.624 39.188 165.272 38.756C 165.944 38.3 166.676 37.568 167.468 36.56C 167.588 36.296 167.768 36.032 168.008 35.768C 168.416 35.312 168.788 35.036 169.124 34.94C 169.46 34.82 169.736 34.82 169.952 34.94C 170.168 35.036 170.312 35.216 170.384 35.48C 170.456 35.72 170.42 35.96 170.276 36.2C 169.916 36.896 169.712 37.448 169.664 37.856C 169.616 38.264 169.664 38.564 169.808 38.756C 169.976 38.924 170.216 38.984 170.528 38.936C 170.864 38.888 171.236 38.756 171.644 38.54C 172.796 37.916 173.984 37.136 175.208 36.2C 176.456 35.24 177.86 34.232 179.42 33.176Z"/>
<path id="path2_fill" d="M 97.0781 15.572C 97.9901 16.652 98.4341 18.056 98.4101 19.784C 98.3861 21.488 97.9541 23.288 97.1141 25.184C 97.0661 25.304 96.9941 25.376 96.8981 25.4C 96.8021 25.424 96.7061 25.424 96.6101 25.4C 96.5141 25.352 96.4421 25.292 96.3941 25.22C 96.3461 25.124 96.3461 25.016 96.3941 24.896C 96.7301 24.032 96.9341 23.192 97.0061 22.376C 97.0781 21.56 97.0181 20.816 96.8261 20.144C 96.6581 19.448 96.3701 18.848 95.9621 18.344C 95.5541 17.816 95.0381 17.42 94.4141 17.156C 93.2861 16.7 92.1101 16.724 90.8861 17.228C 89.6621 17.708 88.4501 18.524 87.2501 19.676C 86.0501 20.828 84.8741 22.232 83.7221 23.888C 82.5941 25.544 81.5621 27.32 80.6261 29.216C 79.6901 31.088 78.8741 33.02 78.1781 35.012C 77.5061 36.98 77.0141 38.852 76.7021 40.628C 76.4141 42.404 76.3421 44.012 76.4861 45.452C 76.6301 46.868 77.0621 47.984 77.7821 48.8C 78.3341 49.424 79.0181 49.832 79.8341 50.024C 80.6501 50.216 81.5141 50.192 82.4261 49.952C 83.3381 49.736 84.2621 49.316 85.1981 48.692C 86.1341 48.068 87.0221 47.276 87.8621 46.316C 88.7021 45.332 89.4461 44.192 90.0941 42.896C 90.7661 41.576 91.2701 40.124 91.6061 38.54C 91.6301 38.42 91.6901 38.336 91.7861 38.288C 91.8821 38.24 91.9781 38.216 92.0741 38.216C 92.1941 38.216 92.2901 38.252 92.3621 38.324C 92.4341 38.396 92.4581 38.504 92.4341 38.648C 92.0741 40.592 91.4981 42.356 90.7061 43.94C 89.9141 45.5 88.9901 46.844 87.9341 47.972C 86.8781 49.124 85.7381 50.048 84.5141 50.744C 83.3141 51.464 82.1261 51.932 80.9501 52.148C 79.7741 52.364 78.6461 52.328 77.5661 52.04C 76.5101 51.752 75.6101 51.176 74.8661 50.312C 73.8581 49.16 73.2581 47.636 73.0661 45.74C 72.8981 43.82 73.0421 41.732 73.4981 39.476C 73.9541 37.196 74.6621 34.856 75.6221 32.456C 76.6061 30.032 77.7461 27.728 79.0421 25.544C 80.3621 23.336 81.7901 21.356 83.3261 19.604C 84.8621 17.852 86.4101 16.508 87.9701 15.572C 89.7701 14.492 91.4861 13.928 93.1181 13.88C 94.7501 13.832 96.0701 14.396 97.0781 15.572ZM 117.489 32.96C 117.657 32.864 117.813 32.816 117.957 32.816C 118.101 32.816 118.197 32.852 118.245 32.924C 118.317 32.996 118.341 33.092 118.317 33.212C 118.293 33.332 118.197 33.44 118.029 33.536C 116.133 34.832 114.381 36.008 112.773 37.064C 111.165 38.096 109.617 39.068 108.129 39.98C 107.697 41.276 107.169 42.728 106.545 44.336C 105.945 45.92 105.225 47.576 104.385 49.304C 103.545 51.056 102.573 52.856 101.469 54.704C 100.365 56.552 99.0932 58.388 97.6532 60.212C 96.2132 62.06 94.5932 63.86 92.7932 65.612C 90.9932 67.364 88.9772 69.02 86.7452 70.58C 84.8252 71.924 83.0132 72.884 81.3092 73.46C 79.6052 74.06 78.0332 74.372 76.5932 74.396C 75.1292 74.444 73.8212 74.24 72.6692 73.784C 71.4932 73.352 70.4972 72.764 69.6812 72.02C 68.8652 71.276 68.2412 70.424 67.8092 69.464C 67.3532 68.504 67.1132 67.532 67.0892 66.548C 67.0652 65.132 67.4132 63.788 68.1332 62.516C 68.8292 61.244 69.8132 60.02 71.0852 58.844C 72.3332 57.668 73.8212 56.54 75.5492 55.46C 77.2532 54.404 79.0892 53.372 81.0572 52.364C 83.0252 51.356 85.0772 50.372 87.2132 49.412C 89.3492 48.452 91.4732 47.504 93.5852 46.568C 95.6732 45.632 97.7012 44.696 99.6692 43.76C 101.637 42.824 103.449 41.876 105.105 40.916C 105.441 40.124 105.729 39.392 105.969 38.72C 106.233 38.024 106.473 37.4 106.689 36.848L 105.069 38.072C 104.493 38.552 103.917 38.876 103.341 39.044C 102.789 39.212 102.309 39.2 101.901 39.008C 101.493 38.816 101.205 38.456 101.037 37.928C 100.893 37.376 100.941 36.644 101.181 35.732C 101.493 34.508 101.925 33.32 102.477 32.168C 102.741 31.568 102.789 31.256 102.621 31.232C 102.453 31.208 102.009 31.412 101.289 31.844C 100.929 32.06 100.521 32.324 100.065 32.636C 99.6092 32.924 99.0572 33.272 98.4092 33.68C 98.0012 33.896 97.7252 33.908 97.5812 33.716C 97.4132 33.524 97.5452 33.284 97.9772 32.996C 98.1932 32.852 98.5652 32.612 99.0932 32.276C 99.6212 31.916 100.209 31.544 100.857 31.16C 101.481 30.8 102.105 30.464 102.729 30.152C 103.353 29.84 103.881 29.66 104.313 29.612C 104.745 29.54 105.033 29.636 105.177 29.9C 105.321 30.164 105.237 30.668 104.925 31.412C 104.637 32.084 104.349 32.84 104.061 33.68C 103.773 34.496 103.533 35.252 103.341 35.948C 103.173 36.692 103.161 37.172 103.305 37.388C 103.473 37.604 103.749 37.652 104.133 37.532C 104.517 37.388 104.973 37.124 105.501 36.74C 106.053 36.356 106.641 35.936 107.265 35.48C 107.433 35.024 107.517 34.796 107.517 34.796C 107.829 34.196 108.153 33.788 108.489 33.572C 108.825 33.356 109.125 33.272 109.389 33.32C 109.653 33.344 109.845 33.476 109.965 33.716C 110.085 33.956 110.085 34.22 109.965 34.508C 109.773 34.94 109.557 35.528 109.317 36.272C 109.101 36.992 108.837 37.844 108.525 38.828C 109.893 37.988 111.297 37.1 112.737 36.164C 114.177 35.204 115.761 34.136 117.489 32.96ZM 84.4412 68.456C 87.2732 66.488 89.7692 64.352 91.9292 62.048C 94.0892 59.744 95.9852 57.428 97.6172 55.1C 99.2252 52.772 100.593 50.492 101.721 48.26C 102.849 46.028 103.809 43.976 104.601 42.104C 103.161 42.944 101.517 43.784 99.6692 44.624C 97.8452 45.464 95.9372 46.328 93.9452 47.216C 91.9292 48.104 89.8892 49.016 87.8252 49.952C 85.7372 50.888 83.7332 51.848 81.8132 52.832C 79.8692 53.84 78.0452 54.86 76.3412 55.892C 74.6132 56.948 73.1252 58.04 71.8772 59.168C 70.6052 60.32 69.6092 61.508 68.8892 62.732C 68.1692 63.956 67.8212 65.228 67.8452 66.548C 67.8692 67.916 68.3012 69.092 69.1412 70.076C 69.9812 71.084 71.1332 71.744 72.5972 72.056C 74.0612 72.368 75.8012 72.26 77.8172 71.732C 79.8332 71.228 82.0412 70.136 84.4412 68.456ZM 141.547 33.392C 141.691 33.272 141.847 33.2 142.015 33.176C 142.207 33.152 142.363 33.164 142.483 33.212C 142.603 33.26 142.663 33.332 142.663 33.428C 142.687 33.5 142.627 33.584 142.483 33.68C 141.595 34.328 140.551 35.096 139.351 35.984C 138.175 36.848 136.963 37.736 135.715 38.648C 134.467 39.56 133.243 40.46 132.043 41.348C 130.867 42.212 129.835 42.98 128.947 43.652C 127.867 44.492 126.955 45.008 126.211 45.2C 125.467 45.392 124.867 45.368 124.411 45.128C 123.979 44.888 123.679 44.468 123.511 43.868C 123.367 43.268 123.355 42.584 123.475 41.816C 123.571 41.24 123.715 40.688 123.907 40.16C 124.123 39.608 124.363 39.08 124.627 38.576C 124.891 38.072 125.167 37.58 125.455 37.1C 125.743 36.596 126.007 36.092 126.247 35.588C 126.463 35.156 126.619 34.676 126.715 34.148C 126.835 33.596 126.871 33.056 126.823 32.528C 126.799 32 126.691 31.496 126.499 31.016C 126.307 30.536 126.019 30.14 125.635 29.828C 125.131 29.42 124.579 29.12 123.979 28.928C 123.379 28.712 122.875 28.532 122.467 28.388C 121.915 29.444 121.183 30.488 120.271 31.52C 119.383 32.528 118.423 33.356 117.391 34.004C 117.199 34.148 117.031 34.22 116.887 34.22C 116.719 34.22 116.587 34.184 116.491 34.112C 116.395 34.04 116.359 33.944 116.383 33.824C 116.407 33.704 116.527 33.572 116.743 33.428C 117.631 32.804 118.543 32.024 119.479 31.088C 120.415 30.128 121.171 29.132 121.747 28.1C 121.315 27.908 120.907 27.68 120.523 27.416C 120.163 27.152 119.851 26.816 119.587 26.408C 119.275 25.952 119.131 25.484 119.155 25.004C 119.203 24.5 119.359 24.08 119.623 23.744C 119.911 23.408 120.271 23.192 120.703 23.096C 121.159 22.976 121.627 23.072 122.107 23.384C 122.563 23.696 122.863 24.116 123.007 24.644C 123.175 25.172 123.235 25.676 123.187 26.156C 123.163 26.42 123.115 26.684 123.043 26.948C 122.995 27.188 122.923 27.428 122.827 27.668C 123.427 27.884 123.991 28.076 124.519 28.244C 125.071 28.412 125.575 28.592 126.031 28.784C 126.511 28.952 126.955 29.168 127.363 29.432C 127.771 29.696 128.143 30.02 128.479 30.404C 128.887 30.884 129.163 31.376 129.307 31.88C 129.451 32.384 129.499 32.9 129.451 33.428C 129.427 33.956 129.319 34.484 129.127 35.012C 128.959 35.54 128.755 36.056 128.515 36.56C 128.275 37.064 128.011 37.556 127.723 38.036C 127.435 38.516 127.159 38.996 126.895 39.476C 126.631 39.956 126.391 40.448 126.175 40.952C 125.983 41.432 125.851 41.936 125.779 42.464C 125.659 43.304 125.791 43.808 126.175 43.976C 126.559 44.12 127.291 43.808 128.371 43.04C 129.715 42.032 130.819 41.204 131.683 40.556C 132.571 39.908 133.303 39.38 133.879 38.972C 134.455 38.54 134.911 38.204 135.247 37.964C 135.583 37.7 135.871 37.484 136.111 37.316C 136.375 37.124 136.627 36.944 136.867 36.776C 137.107 36.608 137.407 36.392 137.767 36.128C 138.151 35.864 138.631 35.516 139.207 35.084C 139.807 34.652 140.587 34.088 141.547 33.392ZM 120.235 26.012C 120.427 26.348 120.691 26.624 121.027 26.84C 121.363 27.056 121.711 27.248 122.071 27.416C 122.167 27.224 122.239 27.02 122.287 26.804C 122.359 26.564 122.407 26.336 122.431 26.12C 122.503 25.256 122.359 24.656 121.999 24.32C 121.663 23.984 121.303 23.852 120.919 23.924C 120.559 23.972 120.271 24.188 120.055 24.572C 119.839 24.956 119.899 25.436 120.235 26.012ZM 152.687 32.924C 152.999 32.708 153.227 32.708 153.371 32.924C 153.539 33.14 153.455 33.356 153.119 33.572L 142.715 40.412C 142.403 40.628 142.067 40.82 141.707 40.988C 141.371 41.156 141.023 41.276 140.663 41.348C 140.327 41.396 139.991 41.384 139.655 41.312C 139.343 41.216 139.055 41.024 138.791 40.736C 138.455 40.376 138.323 39.884 138.395 39.26C 138.467 38.612 138.647 37.916 138.935 37.172C 139.223 36.428 139.571 35.672 139.979 34.904C 140.411 34.136 140.831 33.44 141.239 32.816C 141.647 32.192 141.995 31.688 142.283 31.304C 142.571 30.896 142.715 30.68 142.715 30.656C 142.907 30.368 143.159 30.116 143.471 29.9C 143.783 29.684 144.191 29.576 144.695 29.576C 145.367 29.576 145.655 29.768 145.559 30.152C 145.487 30.536 145.259 30.98 144.875 31.484C 144.395 32.132 143.867 32.864 143.291 33.68C 142.739 34.496 142.235 35.3 141.779 36.092C 141.323 36.86 140.999 37.58 140.807 38.252C 140.615 38.924 140.663 39.44 140.951 39.8C 141.191 40.088 141.479 40.148 141.815 39.98C 142.151 39.788 142.487 39.596 142.823 39.404L 152.687 32.924ZM 146.711 27.596C 146.543 27.596 146.375 27.548 146.207 27.452C 146.039 27.356 145.895 27.212 145.775 27.02C 145.607 26.732 145.535 26.408 145.559 26.048C 145.607 25.664 145.715 25.352 145.883 25.112C 146.051 24.872 146.243 24.704 146.459 24.608C 146.699 24.488 146.939 24.404 147.179 24.356C 147.299 24.332 147.419 24.32 147.539 24.32C 147.683 24.296 147.815 24.308 147.935 24.356C 148.223 24.452 148.439 24.632 148.583 24.896C 148.727 25.184 148.775 25.508 148.727 25.868C 148.679 26.204 148.571 26.468 148.403 26.66C 148.235 26.876 148.115 27.008 148.043 27.056C 147.971 27.104 147.851 27.188 147.683 27.308C 147.539 27.38 147.383 27.452 147.215 27.524C 147.071 27.572 146.903 27.596 146.711 27.596ZM 182.385 1.496C 182.769 2.072 183.009 2.78 183.105 3.62C 183.225 4.436 183.093 5.36 182.709 6.392C 182.349 7.4 181.713 8.492 180.801 9.668C 179.889 10.844 178.617 12.056 176.985 13.304C 174.105 15.512 171.153 17.612 168.129 19.604C 165.129 21.572 162.033 23.432 158.841 25.184C 157.833 26.96 156.933 28.556 156.141 29.972C 155.373 31.388 154.701 32.708 154.125 33.932C 153.549 35.132 153.081 36.272 152.721 37.352C 152.385 38.432 152.145 39.524 152.001 40.628C 151.665 43.052 151.977 44.612 152.937 45.308C 153.897 46.004 155.409 45.644 157.473 44.228L 173.457 33.176C 173.601 33.08 173.745 33.032 173.889 33.032C 174.033 33.032 174.141 33.068 174.213 33.14C 174.285 33.212 174.297 33.308 174.249 33.428C 174.201 33.548 174.069 33.68 173.853 33.824L 157.905 44.876C 156.177 46.052 154.725 46.688 153.549 46.784C 152.373 46.856 151.425 46.604 150.705 46.028C 150.009 45.452 149.529 44.648 149.265 43.616C 149.025 42.56 148.965 41.48 149.085 40.376C 149.301 38.408 149.805 36.536 150.597 34.76C 151.389 32.984 152.217 31.28 153.081 29.648C 153.705 28.448 154.473 27.008 155.385 25.328C 156.297 23.648 157.293 21.872 158.373 20C 159.477 18.128 160.641 16.232 161.865 14.312C 163.089 12.368 164.337 10.544 165.609 8.84C 166.881 7.112 168.141 5.576 169.389 4.232C 170.661 2.864 171.885 1.832 173.061 1.136C 174.117 0.488 175.125 0.056 176.085 -0.16C 177.069 -0.4 177.957 -0.484 178.749 -0.412C 179.565 -0.34 180.285 -0.136 180.909 0.2C 181.533 0.536 182.025 0.968 182.385 1.496ZM 176.517 12.656C 177.885 11.6 178.989 10.568 179.829 9.56C 180.693 8.552 181.329 7.592 181.737 6.68C 182.145 5.768 182.349 4.928 182.349 4.16C 182.349 3.392 182.193 2.732 181.881 2.18C 181.617 1.772 181.257 1.484 180.801 1.316C 180.369 1.148 179.889 1.076 179.361 1.1C 178.857 1.124 178.341 1.232 177.813 1.424C 177.309 1.592 176.841 1.796 176.409 2.036C 175.041 2.828 173.601 4.052 172.089 5.708C 170.601 7.34 169.113 9.188 167.625 11.252C 166.161 13.292 164.733 15.428 163.341 17.66C 161.973 19.868 160.725 21.944 159.597 23.888C 162.549 22.208 165.429 20.444 168.237 18.596C 171.069 16.724 173.829 14.744 176.517 12.656Z"/>
</defs>
</svg>
